# xmcd
#
# Track frame offsets: 
#        150
#        15334
#        34121
#        54635
#        69185
#        85540
#        100963
#        110797
#        122747
#        137605
#        154255
#        170109
#        183152
#        200364
#
# Disc length: 2881 seconds
#
# Revision: 0
# Processed by: cddbd v1.5.2PL0 Copyright (c) Steve Scherf et al.
# Submitted via: ExactAudioCopy v0.95a4
#
DISCID=b50b3f0e
DTITLE=Rosie Ledet and The Playboys - Slap Your Mama
DYEAR=2013
DGENRE=Zydeco
TTITLE0=Already Gone
TTITLE1=Slap Your Mama
TTITLE2=You Told Me You Loved Me
TTITLE3=Wiggle
TTITLE4=Deja Vu
TTITLE5=TGIF
TTITLE6=Only When I Breathe
TTITLE7=Vampire
TTITLE8=Sundown
TTITLE9=Happy
TTITLE10=Wait 4 U
TTITLE11=Mind Your Own Business
TTITLE12=I'm Trying
TTITLE13=Smile On My Face
EXTD=
EXTT0=
EXTT1=
EXTT2=
EXTT3=
EXTT4=
EXTT5=
EXTT6=
EXTT7=
EXTT8=
EXTT9=
EXTT10=
EXTT11=
EXTT12=
EXTT13=
PLAYORDER=
